<svg width="14" height="10" viewBox="0 0 14 10" fill=" #F8F8F9" xmlns="http://www.w3.org/2000/svg">
<path d="M4.95827 9.64575C4.84716 9.64575 4.74299 9.62825 4.64577 9.59325C4.54855 9.55881 4.45827 9.49992 4.37494 9.41658L0.791606 5.83325C0.638829 5.68047 0.565773 5.48242 0.57244 5.23908C0.579662 4.99631 0.659662 4.79853 0.812439 4.64575C0.965217 4.49297 1.15966 4.41659 1.39577 4.41659C1.63188 4.41659 1.82633 4.49297 1.97911 4.64575L4.95827 7.62492L12.0208 0.562419C12.1736 0.409641 12.3716 0.333252 12.6149 0.333252C12.8577 0.333252 13.0555 0.409641 13.2083 0.562419C13.3611 0.715196 13.4374 0.912974 13.4374 1.15575C13.4374 1.39909 13.3611 1.59714 13.2083 1.74992L5.54161 9.41658C5.45827 9.49992 5.36799 9.55881 5.27077 9.59325C5.17355 9.62825 5.06938 9.64575 4.95827 9.64575Z" />
</svg>
