<svg width="60" height="60" viewBox="0 0 60 60" fill="none" xmlns="http://www.w3.org/2000/svg">
<path d="M51.525 47.9748C53.0917 45.8746 54.1669 43.4495 54.6711 40.8783C55.1754 38.3071 55.0958 35.6555 54.4383 33.1192C53.7809 30.5829 52.5622 28.2266 50.8724 26.2241C49.1826 24.2217 47.0647 22.6243 44.675 21.5498C44.1545 18.555 42.9582 15.7183 41.177 13.2552C39.3959 10.7921 37.0768 8.76734 34.3958 7.33484C31.7149 5.90235 28.7427 5.09977 25.7051 4.98811C22.6675 4.87645 19.6444 5.45863 16.8656 6.69042C14.0867 7.92221 11.6251 9.7712 9.66796 12.0969C7.71078 14.4226 6.30945 17.1638 5.57046 20.1123C4.83147 23.0607 4.77426 26.1388 5.40317 29.1127C6.03208 32.0865 7.33057 34.8779 9.19998 37.2748L5.72498 40.7248C5.37808 41.0763 5.14309 41.5228 5.04966 42.0077C4.95622 42.4927 5.00853 42.9945 5.19998 43.4498C5.38753 43.9063 5.70602 44.2971 6.11532 44.573C6.52462 44.8488 7.00641 44.9973 7.49998 44.9998H21.725C23.1416 47.9863 25.3751 50.5105 28.1668 52.2803C30.9586 54.05 34.1945 54.9929 37.5 54.9998H52.5C52.9935 54.9973 53.4753 54.8488 53.8846 54.573C54.2939 54.2971 54.6124 53.9063 54.8 53.4498C54.9914 52.9945 55.0437 52.4927 54.9503 52.0077C54.8569 51.5228 54.6219 51.0763 54.275 50.7248L51.525 47.9748ZM20 37.4998C20.0034 38.337 20.0703 39.1727 20.2 39.9998H13.525L14.4 39.1498C14.6343 38.9174 14.8203 38.6409 14.9472 38.3362C15.0741 38.0316 15.1395 37.7048 15.1395 37.3748C15.1395 37.0447 15.0741 36.718 14.9472 36.4133C14.8203 36.1087 14.6343 35.8322 14.4 35.5998C12.9989 34.214 11.8881 32.5629 11.1326 30.7428C10.3771 28.9228 9.99207 26.9704 9.99998 24.9998C9.99998 21.0215 11.5803 17.2062 14.3934 14.3932C17.2064 11.5801 21.0217 9.99977 25 9.99977C28.1042 9.98111 31.1362 10.9357 33.6698 12.7294C36.2034 14.5231 38.1112 17.0657 39.125 19.9998H37.5C32.8587 19.9998 28.4075 21.8435 25.1256 25.1254C21.8437 28.4073 20 32.8585 20 37.4998ZM46.35 49.9998L46.475 50.1248H37.5C34.6083 50.1196 31.8079 49.1121 29.5758 47.2738C27.3437 45.4355 25.8179 42.8802 25.2585 40.0431C24.699 37.2061 25.1405 34.2629 26.5077 31.7148C27.8748 29.1668 30.0831 27.1715 32.7564 26.069C35.4296 24.9665 38.4024 24.8249 41.1683 25.6683C43.9342 26.5118 46.3222 28.2881 47.9253 30.6946C49.5285 33.1012 50.2477 35.9892 49.9605 38.8665C49.6732 41.7439 48.3973 44.4326 46.35 46.4748C45.8789 46.9363 45.6094 47.5653 45.6 48.2248C45.6013 48.5555 45.6684 48.8827 45.7971 49.1874C45.9258 49.4921 46.1138 49.7682 46.35 49.9998Z" fill="white"/>
</svg>
