<svg width="14" height="12" viewBox="0 0 14 12" fill="none" xmlns="http://www.w3.org/2000/svg">
<g clip-path="url(#clip0_673_2848)">
<path d="M7.7 3C7.7 4.65703 6.44656 6 4.9 6C3.35344 6 2.1 4.65703 2.1 3C2.1 1.34297 3.35344 0 4.9 0C6.44656 0 7.7 1.34297 7.7 3ZM0 11.3039C0 8.99531 1.74563 7.125 3.90031 7.125H5.89969C8.05437 7.125 9.8 8.99531 9.8 11.3039C9.8 11.6883 9.50906 12 9.15031 12H0.649688C0.290938 12 0 11.6883 0 11.3039ZM13.3284 12H10.3119C10.43 11.7797 10.5 11.5242 10.5 11.25V11.0625C10.5 9.63984 9.90719 8.3625 8.97313 7.50469C9.02563 7.50234 9.07594 7.5 9.12844 7.5H10.4716C12.4206 7.5 14 9.19219 14 11.2805C14 11.6789 13.6981 12 13.3284 12ZM9.45 6C8.77187 6 8.15938 5.70469 7.71531 5.22891C8.14625 4.60547 8.4 3.83437 8.4 3C8.4 2.37188 8.25562 1.77891 7.99969 1.25859C8.40656 0.939844 8.9075 0.75 9.45 0.75C10.8041 0.75 11.9 1.92422 11.9 3.375C11.9 4.82578 10.8041 6 9.45 6Z" fill="white"/>
</g>
<defs>
<clipPath id="clip0_673_2848">
<rect width="14" height="12" fill="white"/>
</clipPath>
</defs>
</svg>
