<svg width="17" height="18" viewBox="0 0 17 18" fill="none" xmlns="http://www.w3.org/2000/svg">
<path d="M7.08333 9.00004C8.64814 9.00004 9.91667 7.73151 9.91667 6.16671C9.91667 4.6019 8.64814 3.33337 7.08333 3.33337C5.51853 3.33337 4.25 4.6019 4.25 6.16671C4.25 7.73151 5.51853 9.00004 7.08333 9.00004Z" fill="white"/>
<path d="M7.33133 10.4238C5.39758 10.3529 1.41675 11.3162 1.41675 13.25V14.6667H8.17425C6.42466 12.7117 7.303 10.4946 7.33133 10.4238ZM13.763 13.2642C14.018 12.8463 14.1667 12.3575 14.1667 11.8333C14.1667 10.2679 12.8988 9 11.3334 9C9.768 9 8.50008 10.2679 8.50008 11.8333C8.50008 13.3987 9.768 14.6667 11.3334 14.6667C11.8576 14.6667 12.3463 14.5108 12.7642 14.2629L14.5847 16.0833L15.5834 15.0846L13.763 13.2642ZM11.3334 13.25C10.5542 13.25 9.91675 12.6125 9.91675 11.8333C9.91675 11.0542 10.5542 10.4167 11.3334 10.4167C12.1126 10.4167 12.7501 11.0542 12.7501 11.8333C12.7501 12.6125 12.1126 13.25 11.3334 13.25Z" fill="white"/>
</svg>
