<svg width="35" height="35" stroke="#33B0A4" viewBox="0 0 35 35" fill="none" xmlns="http://www.w3.org/2000/svg">
<path d="M17.5 24.6667H19.2917C20.4861 24.6667 22.875 23.95 22.875 21.0833C22.875 18.2167 20.4861 17.5 19.2917 17.5H15.7083C14.5139 17.5 12.125 16.7833 12.125 13.9167C12.125 11.05 14.5139 10.3333 15.7083 10.3333H17.5M17.5 24.6667H12.125M17.5 24.6667V28.25M22.875 10.3333H17.5M17.5 10.3333V6.75M33.625 17.5C33.625 26.4056 26.4056 33.625 17.5 33.625C8.59441 33.625 1.375 26.4056 1.375 17.5C1.375 8.59441 8.59441 1.375 17.5 1.375C26.4056 1.375 33.625 8.59441 33.625 17.5Z"  stroke-width="1.5" stroke-linecap="round" stroke-linejoin="round"/>
</svg>
