<svg width="27" height="28" viewBox="0 0 27 28" fill="none" xmlns="http://www.w3.org/2000/svg">
<g clip-path="url(#clip0_237_473)">
<path d="M26.9871 14.2524C26.9871 13.1463 26.8952 12.3391 26.6964 11.502H13.7689V16.4947H21.3571C21.2042 17.7354 20.378 19.604 18.5421 20.8596L18.5164 21.0268L22.6038 24.1207L22.887 24.1484C25.4878 21.8014 26.9871 18.3483 26.9871 14.2524Z" fill="#4285F4"/>
<path d="M13.7689 27.407C17.4865 27.407 20.6074 26.2111 22.887 24.1483L18.5421 20.8595C17.3794 21.6518 15.8189 22.2049 13.7689 22.2049C10.1278 22.2049 7.03748 19.8581 5.93586 16.6143L5.77439 16.6277L1.52421 19.8416L1.46863 19.9926C3.73283 24.3874 8.38369 27.407 13.7689 27.407Z" fill="#34A853"/>
<path d="M5.93589 16.6146C5.64521 15.7775 5.47699 14.8806 5.47699 13.9538C5.47699 13.0269 5.64522 12.1301 5.92059 11.293L5.91289 11.1147L1.60945 7.84912L1.46865 7.91456C0.535465 9.7383 0 11.7863 0 13.9538C0 16.1213 0.535465 18.1692 1.46865 19.9929L5.93589 16.6146Z" fill="#FBBC05"/>
<path d="M13.7689 5.70203C16.3544 5.70203 18.0984 6.79327 19.0929 7.70519L22.9788 3.99794C20.5922 1.83042 17.4865 0.5 13.7689 0.5C8.38369 0.5 3.73283 3.51957 1.46863 7.91439L5.92057 11.2928C7.03748 8.04897 10.1278 5.70203 13.7689 5.70203Z" fill="#EB4335"/>
</g>
<defs>
<clipPath id="clip0_237_473">
<rect width="27" height="27" fill="white" transform="translate(0 0.5)"/>
</clipPath>
</defs>
</svg>
