<svg width="22" height="22" viewBox="0 0 22 22" stroke="#E76C37"  fill="none" xmlns="http://www.w3.org/2000/svg">
<path d="M6 13V1M14 17.12L13 13H18.83C19.1405 13 19.4467 12.9277 19.7244 12.7889C20.0021 12.65 20.2437 12.4484 20.43 12.2C20.6163 11.9516 20.7422 11.6633 20.7977 11.3578C20.8533 11.0523 20.8369 10.7381 20.75 10.44L18.42 2.44C18.2988 2.02457 18.0462 1.65964 17.7 1.4C17.3538 1.14036 16.9327 1 16.5 1H3C2.46957 1 1.96086 1.21071 1.58579 1.58579C1.21071 1.96086 1 2.46957 1 3V11C1 11.5304 1.21071 12.0391 1.58579 12.4142C1.96086 12.7893 2.46957 13 3 13H5.76C6.13208 13.0002 6.49674 13.1042 6.81296 13.3003C7.12917 13.4964 7.38442 13.7768 7.55 14.11L11 21C11.4716 20.9942 11.9357 20.8818 12.3578 20.6714C12.7799 20.461 13.1489 20.1579 13.4374 19.7848C13.7259 19.4117 13.9263 18.9782 14.0237 18.5168C14.1212 18.0554 14.113 17.5779 14 17.12Z" stroke-width="2" stroke-linecap="round" stroke-linejoin="round"/>
</svg>
