<svg width="14" height="14" viewBox="0 0 14 14" fill="none" xmlns="http://www.w3.org/2000/svg">
<g clip-path="url(#clip0_458_1576)">
<path d="M7.00044 12.25C10.8668 12.25 14.0004 9.7043 14.0004 6.5625C14.0004 3.4207 10.8668 0.875 7.00044 0.875C3.13404 0.875 0.000444048 3.4207 0.000444048 6.5625C0.000444048 7.7957 0.484428 8.93594 1.30474 9.86836C1.25279 10.5383 0.993022 11.1344 0.719585 11.5883C0.569194 11.8398 0.416069 12.0422 0.30396 12.1789C0.246538 12.2473 0.202788 12.2992 0.169975 12.3348C0.153569 12.3512 0.142632 12.3648 0.134428 12.373L0.126225 12.3813C0.000444049 12.507 -0.0351028 12.693 0.0332565 12.857C0.101616 13.0211 0.26021 13.1277 0.437944 13.1277C1.22271 13.1277 2.01294 12.8844 2.66919 12.6C3.29537 12.3266 3.82857 12.0012 4.15396 11.7633C5.02349 12.0777 5.98599 12.2527 7.00044 12.2527V12.25ZM3.50044 7.4375C3.01646 7.4375 2.62544 7.04648 2.62544 6.5625C2.62544 6.07852 3.01646 5.6875 3.50044 5.6875C3.98443 5.6875 4.37544 6.07852 4.37544 6.5625C4.37544 7.04648 3.98443 7.4375 3.50044 7.4375ZM7.00044 7.4375C6.51646 7.4375 6.12544 7.04648 6.12544 6.5625C6.12544 6.07852 6.51646 5.6875 7.00044 5.6875C7.48443 5.6875 7.87544 6.07852 7.87544 6.5625C7.87544 7.04648 7.48443 7.4375 7.00044 7.4375ZM11.3754 6.5625C11.3754 7.04648 10.9844 7.4375 10.5004 7.4375C10.0165 7.4375 9.62544 7.04648 9.62544 6.5625C9.62544 6.07852 10.0165 5.6875 10.5004 5.6875C10.9844 5.6875 11.3754 6.07852 11.3754 6.5625Z" fill="white"/>
</g>
<defs>
<clipPath id="clip0_458_1576">
<rect width="14" height="14" fill="white"/>
</clipPath>
</defs>
</svg>
