<?xml version="1.0" standalone="no"?>
<!DOCTYPE svg PUBLIC "-//W3C//DTD SVG 20010904//EN"
 "http://www.w3.org/TR/2001/REC-SVG-20010904/DTD/svg10.dtd">
<svg version="1.0" xmlns="http://www.w3.org/2000/svg"
 width="700.000000pt" height="700.000000pt" viewBox="0 0 700.000000 700.000000"
 preserveAspectRatio="xMidYMid meet">
<metadata>
Created by potrace 1.14, written by Peter Selinger 2001-2017
</metadata>
<g transform="translate(0.000000,700.000000) scale(0.100000,-0.100000)"
fill="#000000" stroke="none">
<path d="M960 6482 c-56 -8 -169 -42 -225 -69 -368 -175 -553 -572 -450 -968
64 -246 265 -466 507 -554 167 -61 352 -71 500 -26 l48 14 78 -97 79 -97 -79
-90 c-174 -197 -332 -475 -414 -723 -22 -67 -44 -142 -50 -167 -50 -226 -62
-344 -59 -560 3 -151 7 -209 19 -280 4 -22 14 -76 20 -115 8 -46 55 -214 79
-285 68 -194 196 -434 308 -577 l29 -36 -67 -60 -67 -60 -36 15 c-63 28 -162
50 -235 52 -224 6 -441 -131 -531 -335 -133 -300 7 -643 313 -767 74 -30 121
-39 210 -39 317 -1 578 267 568 582 -3 81 -9 124 -25 165 -6 15 -10 30 -10 35
0 5 32 36 71 70 l71 61 37 -33 c143 -126 349 -255 538 -337 125 -54 288 -109
373 -125 14 -2 45 -9 70 -14 47 -11 95 -19 195 -32 63 -9 465 -6 501 3 12 3
39 8 60 12 81 12 102 17 201 41 173 42 402 134 546 220 60 36 197 126 227 151
224 180 367 334 505 543 126 191 246 466 290 660 19 87 45 227 45 246 0 23 2
24 85 22 l84 -1 26 -65 c84 -208 256 -361 480 -423 32 -9 98 -14 180 -13 114
0 140 3 206 26 389 135 582 548 433 925 -73 186 -217 326 -410 399 -78 29
-129 37 -234 38 -209 1 -363 -65 -511 -217 -63 -64 -144 -198 -161 -264 -6
-22 -12 -23 -87 -23 l-81 0 -1 48 c0 26 -2 56 -4 67 -2 11 -6 38 -9 60 -14
118 -78 372 -116 460 -5 11 -25 58 -45 105 -94 223 -259 465 -445 650 -141
142 -174 170 -320 269 -215 147 -509 277 -710 316 -12 2 -29 6 -38 9 -41 13
-204 37 -291 43 -352 26 -651 -19 -971 -144 -112 -45 -279 -127 -332 -164 -23
-17 -58 -17 -58 0 0 3 -27 39 -59 79 l-60 73 30 44 c127 188 162 485 83 705
-73 205 -210 366 -396 464 -151 79 -340 112 -508 88z m264 -536 c62 -31 118
-89 149 -156 33 -70 30 -188 -5 -260 -46 -93 -133 -162 -219 -175 -24 -3 -53
-8 -64 -9 -63 -9 -190 47 -241 106 -126 150 -97 365 64 477 84 58 217 65 316
17z m2001 -1631 c172 -24 394 -119 529 -225 222 -175 381 -440 430 -716 13
-78 15 -325 1 -389 -48 -238 -159 -448 -323 -612 -80 -80 -263 -213 -293 -213
-7 0 -20 -6 -28 -13 -27 -23 -212 -83 -281 -92 -14 -2 -41 -7 -60 -10 -43 -8
-207 -8 -275 -1 -240 27 -477 138 -664 311 -43 39 -161 186 -174 215 -4 8 -18
33 -32 55 -14 22 -28 47 -31 55 -3 8 -11 26 -18 40 -23 44 -65 182 -80 265
-15 80 -16 326 -2 390 40 181 89 305 174 435 137 207 357 378 582 454 170 57
374 76 545 51z"/>
</g>
</svg>
